{
	"asset":{
		"generator":"Khronos glTF Blender I/O v3.6.27",
		"version":"2.0"
	},
	"scene":0,
	"scenes":[
		{
			"name":"Scene",
			"nodes":[
				0,
				1,
				2,
				3,
				4,
				5
			]
		}
	],
	"nodes":[
		{
			"mesh":0,
			"name":"Ceiling",
			"translation":[
				0,
				-0.39491450786590576,
				0
			]
		},
		{
			"mesh":1,
			"name":"DoorPath.004",
			"rotation":[
				0,
				-1,
				0,
				4.371138828673793e-08
			]
		},
		{
			"mesh":2,
			"name":"Floor.001"
		},
		{
			"mesh":3,
			"name":"DoorPath.001"
		},
		{
			"mesh":4,
			"name":"LCZWallNeoCB2.002"
		},
		{
			"mesh":5,
			"name":"LCZWallNeoCB2.016",
			"rotation":[
				0,
				-1,
				0,
				4.371138828673793e-08
			]
		}
	],
	"materials":[
		{
			"doubleSided":true,
			"name":"Material.004",
			"normalTexture":{
				"index":0
			},
			"pbrMetallicRoughness":{
				"baseColorTexture":{
					"index":1
				},
				"metallicRoughnessTexture":{
					"index":2
				}
			}
		},
		{
			"doubleSided":true,
			"name":"Background.006",
			"normalTexture":{
				"index":3
			},
			"pbrMetallicRoughness":{
				"baseColorFactor":[
					0.800000011920929,
					0.800000011920929,
					0.800000011920929,
					1
				],
				"metallicFactor":0,
				"metallicRoughnessTexture":{
					"index":4
				}
			}
		},
		{
			"doubleSided":true,
			"name":"Material.013",
			"normalTexture":{
				"index":5
			},
			"pbrMetallicRoughness":{
				"baseColorTexture":{
					"index":6
				},
				"metallicFactor":0,
				"metallicRoughnessTexture":{
					"index":7
				}
			}
		},
		{
			"doubleSided":true,
			"name":"Glow.003",
			"pbrMetallicRoughness":{
				"baseColorFactor":[
					0,
					0,
					0,
					1
				],
				"metallicFactor":0,
				"roughnessFactor":0.5
			}
		},
		{
			"doubleSided":true,
			"name":"Foreground.001",
			"normalTexture":{
				"index":8
			},
			"pbrMetallicRoughness":{
				"baseColorTexture":{
					"index":9
				},
				"metallicRoughnessTexture":{
					"index":10
				}
			}
		},
		{
			"doubleSided":true,
			"name":"Background.001",
			"normalTexture":{
				"index":11
			},
			"pbrMetallicRoughness":{
				"baseColorFactor":[
					0.800000011920929,
					0.800000011920929,
					0.800000011920929,
					1
				],
				"metallicFactor":0,
				"metallicRoughnessTexture":{
					"index":12
				}
			}
		},
		{
			"doubleSided":true,
			"name":"Glow.007",
			"pbrMetallicRoughness":{
				"baseColorFactor":[
					0,
					0,
					0,
					1
				],
				"metallicFactor":0,
				"roughnessFactor":0.5
			}
		},
		{
			"doubleSided":true,
			"name":"Foreground.009",
			"normalTexture":{
				"index":13
			},
			"pbrMetallicRoughness":{
				"baseColorTexture":{
					"index":14
				},
				"metallicRoughnessTexture":{
					"index":15
				}
			}
		},
		{
			"doubleSided":true,
			"name":"Background.009",
			"normalTexture":{
				"index":16
			},
			"pbrMetallicRoughness":{
				"baseColorFactor":[
					0.800000011920929,
					0.800000011920929,
					0.800000011920929,
					1
				],
				"metallicFactor":0,
				"metallicRoughnessTexture":{
					"index":17
				}
			}
		}
	],
	"meshes":[
		{
			"name":"Plane.005",
			"primitives":[
				{
					"attributes":{
						"POSITION":0,
						"NORMAL":1,
						"TEXCOORD_0":2
					},
					"indices":3,
					"material":0
				}
			]
		},
		{
			"name":"Plane.010",
			"primitives":[
				{
					"attributes":{
						"POSITION":4,
						"NORMAL":5,
						"TEXCOORD_0":6
					},
					"indices":7,
					"material":1
				}
			]
		},
		{
			"name":"Plane.008",
			"primitives":[
				{
					"attributes":{
						"POSITION":8,
						"NORMAL":9,
						"TEXCOORD_0":10
					},
					"indices":11,
					"material":2
				}
			]
		},
		{
			"name":"Plane.001",
			"primitives":[
				{
					"attributes":{
						"POSITION":12,
						"NORMAL":13,
						"TEXCOORD_0":14
					},
					"indices":7,
					"material":1
				}
			]
		},
		{
			"name":"Plane.002",
			"primitives":[
				{
					"attributes":{
						"POSITION":15,
						"NORMAL":16,
						"TEXCOORD_0":17
					},
					"indices":18,
					"material":3
				},
				{
					"attributes":{
						"POSITION":19,
						"NORMAL":20,
						"TEXCOORD_0":21
					},
					"indices":22,
					"material":4
				},
				{
					"attributes":{
						"POSITION":23,
						"NORMAL":24,
						"TEXCOORD_0":25
					},
					"indices":26,
					"material":5
				},
				{
					"attributes":{
						"POSITION":27,
						"NORMAL":28,
						"TEXCOORD_0":29
					},
					"indices":30,
					"material":5
				},
				{
					"attributes":{
						"POSITION":31,
						"NORMAL":32,
						"TEXCOORD_0":33
					},
					"indices":18,
					"material":3
				},
				{
					"attributes":{
						"POSITION":34,
						"NORMAL":35,
						"TEXCOORD_0":36
					},
					"indices":22,
					"material":4
				},
				{
					"attributes":{
						"POSITION":37,
						"NORMAL":38,
						"TEXCOORD_0":39
					},
					"indices":40,
					"material":5
				}
			]
		},
		{
			"name":"Plane.020",
			"primitives":[
				{
					"attributes":{
						"POSITION":41,
						"NORMAL":42,
						"TEXCOORD_0":43
					},
					"indices":18,
					"material":6
				},
				{
					"attributes":{
						"POSITION":44,
						"NORMAL":45,
						"TEXCOORD_0":46
					},
					"indices":22,
					"material":7
				},
				{
					"attributes":{
						"POSITION":47,
						"NORMAL":48,
						"TEXCOORD_0":49
					},
					"indices":26,
					"material":8
				},
				{
					"attributes":{
						"POSITION":50,
						"NORMAL":51,
						"TEXCOORD_0":52
					},
					"indices":30,
					"material":8
				},
				{
					"attributes":{
						"POSITION":53,
						"NORMAL":54,
						"TEXCOORD_0":55
					},
					"indices":18,
					"material":6
				},
				{
					"attributes":{
						"POSITION":56,
						"NORMAL":57,
						"TEXCOORD_0":58
					},
					"indices":22,
					"material":7
				},
				{
					"attributes":{
						"POSITION":59,
						"NORMAL":60,
						"TEXCOORD_0":61
					},
					"indices":40,
					"material":8
				}
			]
		}
	],
	"textures":[
		{
			"sampler":0,
			"source":0
		},
		{
			"sampler":0,
			"source":1
		},
		{
			"sampler":0,
			"source":2
		},
		{
			"sampler":0,
			"source":3
		},
		{
			"sampler":0,
			"source":4
		},
		{
			"sampler":0,
			"source":5
		},
		{
			"sampler":0,
			"source":6
		},
		{
			"sampler":0,
			"source":7
		},
		{
			"sampler":0,
			"source":8
		},
		{
			"sampler":0,
			"source":9
		},
		{
			"sampler":0,
			"source":10
		},
		{
			"sampler":0,
			"source":3
		},
		{
			"sampler":0,
			"source":4
		},
		{
			"sampler":0,
			"source":8
		},
		{
			"sampler":0,
			"source":9
		},
		{
			"sampler":0,
			"source":11
		},
		{
			"sampler":0,
			"source":3
		},
		{
			"sampler":0,
			"source":4
		}
	],
	"images":[
		{
			"mimeType":"image/png",
			"name":"OfficeCeiling001_2K_NormalGL",
			"uri":"OfficeCeiling001_2K_NormalGL.png"
		},
		{
			"mimeType":"image/png",
			"name":"OfficeCeiling001_2K_Color",
			"uri":"OfficeCeiling001_2K_Color.png"
		},
		{
			"mimeType":"image/png",
			"name":"OfficeCeiling001_2K_Metalness-OfficeCeiling001_2K_Roughness",
			"uri":"OfficeCeiling001_2K_Metalness-OfficeCeiling001_2K_Roughness.png"
		},
		{
			"mimeType":"image/png",
			"name":"beige_wall_001_nor_gl_2k",
			"uri":"beige_wall_001_nor_gl_2k.png"
		},
		{
			"mimeType":"image/png",
			"name":"beige_wall_001_rough_2k",
			"uri":"beige_wall_001_rough_2k.png"
		},
		{
			"mimeType":"image/png",
			"name":"Tiles107_2K_NormalGL",
			"uri":"Tiles107_2K_NormalGL.png"
		},
		{
			"mimeType":"image/png",
			"name":"Tiles107_2K_Color",
			"uri":"Tiles107_2K_Color.png"
		},
		{
			"mimeType":"image/png",
			"name":"Tiles107_2K_Roughness",
			"uri":"Tiles107_2K_Roughness.png"
		},
		{
			"mimeType":"image/png",
			"name":"SheetMetal001_2K-PNG_NormalGL",
			"uri":"SheetMetal001_2K-PNG_NormalGL.png"
		},
		{
			"mimeType":"image/png",
			"name":"SheetMetal001_2K-PNG_Color",
			"uri":"SheetMetal001_2K-PNG_Color.png"
		},
		{
			"mimeType":"image/png",
			"name":"SheetMetal001_2K-PNG_Metalness-SheetMetal001_2K-PNG_Roughness",
			"uri":"SheetMetal001_2K-PNG_Metalness-SheetMetal001_2K-PNG_Roughness.png"
		},
		{
			"mimeType":"image/png",
			"name":"SheetMetal001_2K-PNG_Metalness.png-SheetMetal001_2K-PNG_Roughness.png",
			"uri":"SheetMetal001_2K-PNG_Metalness_png-SheetMetal001_2K-PNG_Roughness_png.png"
		}
	],
	"accessors":[
		{
			"bufferView":0,
			"componentType":5126,
			"count":4,
			"max":[
				10,
				6.99613094329834,
				10
			],
			"min":[
				-10,
				6.99613094329834,
				-10
			],
			"type":"VEC3"
		},
		{
			"bufferView":1,
			"componentType":5126,
			"count":4,
			"type":"VEC3"
		},
		{
			"bufferView":2,
			"componentType":5126,
			"count":4,
			"type":"VEC2"
		},
		{
			"bufferView":3,
			"componentType":5123,
			"count":6,
			"type":"SCALAR"
		},
		{
			"bufferView":4,
			"componentType":5126,
			"count":57,
			"max":[
				8.00000286102295,
				6.996889114379883,
				10.238296508789062
			],
			"min":[
				-7.999997615814209,
				-0.0031108856201171875,
				9.9354829788208
			],
			"type":"VEC3"
		},
		{
			"bufferView":5,
			"componentType":5126,
			"count":57,
			"type":"VEC3"
		},
		{
			"bufferView":6,
			"componentType":5126,
			"count":57,
			"type":"VEC2"
		},
		{
			"bufferView":7,
			"componentType":5123,
			"count":129,
			"type":"SCALAR"
		},
		{
			"bufferView":8,
			"componentType":5126,
			"count":4,
			"max":[
				10.238296508789062,
				3.755558282136917e-07,
				10.238296508789062
			],
			"min":[
				-10.238295555114746,
				3.755558282136917e-07,
				-10.238296508789062
			],
			"type":"VEC3"
		},
		{
			"bufferView":9,
			"componentType":5126,
			"count":4,
			"type":"VEC3"
		},
		{
			"bufferView":10,
			"componentType":5126,
			"count":4,
			"type":"VEC2"
		},
		{
			"bufferView":11,
			"componentType":5123,
			"count":6,
			"type":"SCALAR"
		},
		{
			"bufferView":12,
			"componentType":5126,
			"count":57,
			"max":[
				8.00000286102295,
				6.996889114379883,
				10.238296508789062
			],
			"min":[
				-7.999997615814209,
				-0.0031108856201171875,
				9.9354829788208
			],
			"type":"VEC3"
		},
		{
			"bufferView":13,
			"componentType":5126,
			"count":57,
			"type":"VEC3"
		},
		{
			"bufferView":14,
			"componentType":5126,
			"count":57,
			"type":"VEC2"
		},
		{
			"bufferView":15,
			"componentType":5126,
			"count":8,
			"max":[
				3.1574325561523438,
				6.716299533843994,
				-6.162940979003906
			],
			"min":[
				2.977759838104248,
				-0.0003107786178588867,
				-7.580425262451172
			],
			"type":"VEC3"
		},
		{
			"bufferView":16,
			"componentType":5126,
			"count":8,
			"type":"VEC3"
		},
		{
			"bufferView":17,
			"componentType":5126,
			"count":8,
			"type":"VEC2"
		},
		{
			"bufferView":18,
			"componentType":5123,
			"count":12,
			"type":"SCALAR"
		},
		{
			"bufferView":19,
			"componentType":5126,
			"count":4,
			"max":[
				3.1574325561523438,
				6.716299533843994,
				-6.238332748413086
			],
			"min":[
				3.1574323177337646,
				-0.0003107786178588867,
				-7.518337249755859
			],
			"type":"VEC3"
		},
		{
			"bufferView":20,
			"componentType":5126,
			"count":4,
			"type":"VEC3"
		},
		{
			"bufferView":21,
			"componentType":5126,
			"count":4,
			"type":"VEC2"
		},
		{
			"bufferView":22,
			"componentType":5123,
			"count":6,
			"type":"SCALAR"
		},
		{
			"bufferView":23,
			"componentType":5126,
			"count":58,
			"max":[
				9.835577011108398,
				6.716299533843994,
				9.390737533569336
			],
			"min":[
				2.977759599685669,
				-0.0003107786178588867,
				-10.097789764404297
			],
			"type":"VEC3"
		},
		{
			"bufferView":24,
			"componentType":5126,
			"count":58,
			"type":"VEC3"
		},
		{
			"bufferView":25,
			"componentType":5126,
			"count":58,
			"type":"VEC2"
		},
		{
			"bufferView":26,
			"componentType":5123,
			"count":96,
			"type":"SCALAR"
		},
		{
			"bufferView":27,
			"componentType":5126,
			"count":48,
			"max":[
				9.835577011108398,
				6.716299533843994,
				9.390737533569336
			],
			"min":[
				2.97775936126709,
				-0.0003107786178588867,
				-0.7041492462158203
			],
			"type":"VEC3"
		},
		{
			"bufferView":28,
			"componentType":5126,
			"count":48,
			"type":"VEC3"
		},
		{
			"bufferView":29,
			"componentType":5126,
			"count":48,
			"type":"VEC2"
		},
		{
			"bufferView":30,
			"componentType":5123,
			"count":78,
			"type":"SCALAR"
		},
		{
			"bufferView":31,
			"componentType":5126,
			"count":8,
			"max":[
				3.1574320793151855,
				6.716299533843994,
				7.962636470794678
			],
			"min":[
				2.97775936126709,
				-0.0003107786178588867,
				6.545152187347412
			],
			"type":"VEC3"
		},
		{
			"bufferView":32,
			"componentType":5126,
			"count":8,
			"type":"VEC3"
		},
		{
			"bufferView":33,
			"componentType":5126,
			"count":8,
			"type":"VEC2"
		},
		{
			"bufferView":34,
			"componentType":5126,
			"count":4,
			"max":[
				3.1574320793151855,
				6.716299533843994,
				7.887243747711182
			],
			"min":[
				3.1574318408966064,
				-0.0003107786178588867,
				6.607239246368408
			],
			"type":"VEC3"
		},
		{
			"bufferView":35,
			"componentType":5126,
			"count":4,
			"type":"VEC3"
		},
		{
			"bufferView":36,
			"componentType":5126,
			"count":4,
			"type":"VEC2"
		},
		{
			"bufferView":37,
			"componentType":5126,
			"count":8,
			"max":[
				2.977759599685669,
				6.716299533843994,
				10.057947158813477
			],
			"min":[
				2.9777591228485107,
				-0.0003107786178588867,
				4.411732196807861
			],
			"type":"VEC3"
		},
		{
			"bufferView":38,
			"componentType":5126,
			"count":8,
			"type":"VEC3"
		},
		{
			"bufferView":39,
			"componentType":5126,
			"count":8,
			"type":"VEC2"
		},
		{
			"bufferView":40,
			"componentType":5123,
			"count":12,
			"type":"SCALAR"
		},
		{
			"bufferView":41,
			"componentType":5126,
			"count":8,
			"max":[
				3.1574325561523438,
				6.716299533843994,
				-6.162940979003906
			],
			"min":[
				2.977759838104248,
				-0.0003107786178588867,
				-7.580425262451172
			],
			"type":"VEC3"
		},
		{
			"bufferView":42,
			"componentType":5126,
			"count":8,
			"type":"VEC3"
		},
		{
			"bufferView":43,
			"componentType":5126,
			"count":8,
			"type":"VEC2"
		},
		{
			"bufferView":44,
			"componentType":5126,
			"count":4,
			"max":[
				3.1574325561523438,
				6.716299533843994,
				-6.238332748413086
			],
			"min":[
				3.1574323177337646,
				-0.0003107786178588867,
				-7.518337249755859
			],
			"type":"VEC3"
		},
		{
			"bufferView":45,
			"componentType":5126,
			"count":4,
			"type":"VEC3"
		},
		{
			"bufferView":46,
			"componentType":5126,
			"count":4,
			"type":"VEC2"
		},
		{
			"bufferView":47,
			"componentType":5126,
			"count":58,
			"max":[
				9.835577011108398,
				6.716299533843994,
				9.390737533569336
			],
			"min":[
				2.977759599685669,
				-0.0003107786178588867,
				-10.097789764404297
			],
			"type":"VEC3"
		},
		{
			"bufferView":48,
			"componentType":5126,
			"count":58,
			"type":"VEC3"
		},
		{
			"bufferView":49,
			"componentType":5126,
			"count":58,
			"type":"VEC2"
		},
		{
			"bufferView":50,
			"componentType":5126,
			"count":48,
			"max":[
				9.835577011108398,
				6.716299533843994,
				9.390737533569336
			],
			"min":[
				2.97775936126709,
				-0.0003107786178588867,
				-0.7041492462158203
			],
			"type":"VEC3"
		},
		{
			"bufferView":51,
			"componentType":5126,
			"count":48,
			"type":"VEC3"
		},
		{
			"bufferView":52,
			"componentType":5126,
			"count":48,
			"type":"VEC2"
		},
		{
			"bufferView":53,
			"componentType":5126,
			"count":8,
			"max":[
				3.1574320793151855,
				6.716299533843994,
				7.962636470794678
			],
			"min":[
				2.97775936126709,
				-0.0003107786178588867,
				6.545152187347412
			],
			"type":"VEC3"
		},
		{
			"bufferView":54,
			"componentType":5126,
			"count":8,
			"type":"VEC3"
		},
		{
			"bufferView":55,
			"componentType":5126,
			"count":8,
			"type":"VEC2"
		},
		{
			"bufferView":56,
			"componentType":5126,
			"count":4,
			"max":[
				3.1574320793151855,
				6.716299533843994,
				7.887243747711182
			],
			"min":[
				3.1574318408966064,
				-0.0003107786178588867,
				6.607239246368408
			],
			"type":"VEC3"
		},
		{
			"bufferView":57,
			"componentType":5126,
			"count":4,
			"type":"VEC3"
		},
		{
			"bufferView":58,
			"componentType":5126,
			"count":4,
			"type":"VEC2"
		},
		{
			"bufferView":59,
			"componentType":5126,
			"count":8,
			"max":[
				2.977759599685669,
				6.716299533843994,
				10.057947158813477
			],
			"min":[
				2.9777591228485107,
				-0.0003107786178588867,
				4.411732196807861
			],
			"type":"VEC3"
		},
		{
			"bufferView":60,
			"componentType":5126,
			"count":8,
			"type":"VEC3"
		},
		{
			"bufferView":61,
			"componentType":5126,
			"count":8,
			"type":"VEC2"
		}
	],
	"bufferViews":[
		{
			"buffer":0,
			"byteLength":48,
			"byteOffset":0,
			"target":34962
		},
		{
			"buffer":0,
			"byteLength":48,
			"byteOffset":48,
			"target":34962
		},
		{
			"buffer":0,
			"byteLength":32,
			"byteOffset":96,
			"target":34962
		},
		{
			"buffer":0,
			"byteLength":12,
			"byteOffset":128,
			"target":34963
		},
		{
			"buffer":0,
			"byteLength":684,
			"byteOffset":140,
			"target":34962
		},
		{
			"buffer":0,
			"byteLength":684,
			"byteOffset":824,
			"target":34962
		},
		{
			"buffer":0,
			"byteLength":456,
			"byteOffset":1508,
			"target":34962
		},
		{
			"buffer":0,
			"byteLength":258,
			"byteOffset":1964,
			"target":34963
		},
		{
			"buffer":0,
			"byteLength":48,
			"byteOffset":2224,
			"target":34962
		},
		{
			"buffer":0,
			"byteLength":48,
			"byteOffset":2272,
			"target":34962
		},
		{
			"buffer":0,
			"byteLength":32,
			"byteOffset":2320,
			"target":34962
		},
		{
			"buffer":0,
			"byteLength":12,
			"byteOffset":2352,
			"target":34963
		},
		{
			"buffer":0,
			"byteLength":684,
			"byteOffset":2364,
			"target":34962
		},
		{
			"buffer":0,
			"byteLength":684,
			"byteOffset":3048,
			"target":34962
		},
		{
			"buffer":0,
			"byteLength":456,
			"byteOffset":3732,
			"target":34962
		},
		{
			"buffer":0,
			"byteLength":96,
			"byteOffset":4188,
			"target":34962
		},
		{
			"buffer":0,
			"byteLength":96,
			"byteOffset":4284,
			"target":34962
		},
		{
			"buffer":0,
			"byteLength":64,
			"byteOffset":4380,
			"target":34962
		},
		{
			"buffer":0,
			"byteLength":24,
			"byteOffset":4444,
			"target":34963
		},
		{
			"buffer":0,
			"byteLength":48,
			"byteOffset":4468,
			"target":34962
		},
		{
			"buffer":0,
			"byteLength":48,
			"byteOffset":4516,
			"target":34962
		},
		{
			"buffer":0,
			"byteLength":32,
			"byteOffset":4564,
			"target":34962
		},
		{
			"buffer":0,
			"byteLength":12,
			"byteOffset":4596,
			"target":34963
		},
		{
			"buffer":0,
			"byteLength":696,
			"byteOffset":4608,
			"target":34962
		},
		{
			"buffer":0,
			"byteLength":696,
			"byteOffset":5304,
			"target":34962
		},
		{
			"buffer":0,
			"byteLength":464,
			"byteOffset":6000,
			"target":34962
		},
		{
			"buffer":0,
			"byteLength":192,
			"byteOffset":6464,
			"target":34963
		},
		{
			"buffer":0,
			"byteLength":576,
			"byteOffset":6656,
			"target":34962
		},
		{
			"buffer":0,
			"byteLength":576,
			"byteOffset":7232,
			"target":34962
		},
		{
			"buffer":0,
			"byteLength":384,
			"byteOffset":7808,
			"target":34962
		},
		{
			"buffer":0,
			"byteLength":156,
			"byteOffset":8192,
			"target":34963
		},
		{
			"buffer":0,
			"byteLength":96,
			"byteOffset":8348,
			"target":34962
		},
		{
			"buffer":0,
			"byteLength":96,
			"byteOffset":8444,
			"target":34962
		},
		{
			"buffer":0,
			"byteLength":64,
			"byteOffset":8540,
			"target":34962
		},
		{
			"buffer":0,
			"byteLength":48,
			"byteOffset":8604,
			"target":34962
		},
		{
			"buffer":0,
			"byteLength":48,
			"byteOffset":8652,
			"target":34962
		},
		{
			"buffer":0,
			"byteLength":32,
			"byteOffset":8700,
			"target":34962
		},
		{
			"buffer":0,
			"byteLength":96,
			"byteOffset":8732,
			"target":34962
		},
		{
			"buffer":0,
			"byteLength":96,
			"byteOffset":8828,
			"target":34962
		},
		{
			"buffer":0,
			"byteLength":64,
			"byteOffset":8924,
			"target":34962
		},
		{
			"buffer":0,
			"byteLength":24,
			"byteOffset":8988,
			"target":34963
		},
		{
			"buffer":0,
			"byteLength":96,
			"byteOffset":9012,
			"target":34962
		},
		{
			"buffer":0,
			"byteLength":96,
			"byteOffset":9108,
			"target":34962
		},
		{
			"buffer":0,
			"byteLength":64,
			"byteOffset":9204,
			"target":34962
		},
		{
			"buffer":0,
			"byteLength":48,
			"byteOffset":9268,
			"target":34962
		},
		{
			"buffer":0,
			"byteLength":48,
			"byteOffset":9316,
			"target":34962
		},
		{
			"buffer":0,
			"byteLength":32,
			"byteOffset":9364,
			"target":34962
		},
		{
			"buffer":0,
			"byteLength":696,
			"byteOffset":9396,
			"target":34962
		},
		{
			"buffer":0,
			"byteLength":696,
			"byteOffset":10092,
			"target":34962
		},
		{
			"buffer":0,
			"byteLength":464,
			"byteOffset":10788,
			"target":34962
		},
		{
			"buffer":0,
			"byteLength":576,
			"byteOffset":11252,
			"target":34962
		},
		{
			"buffer":0,
			"byteLength":576,
			"byteOffset":11828,
			"target":34962
		},
		{
			"buffer":0,
			"byteLength":384,
			"byteOffset":12404,
			"target":34962
		},
		{
			"buffer":0,
			"byteLength":96,
			"byteOffset":12788,
			"target":34962
		},
		{
			"buffer":0,
			"byteLength":96,
			"byteOffset":12884,
			"target":34962
		},
		{
			"buffer":0,
			"byteLength":64,
			"byteOffset":12980,
			"target":34962
		},
		{
			"buffer":0,
			"byteLength":48,
			"byteOffset":13044,
			"target":34962
		},
		{
			"buffer":0,
			"byteLength":48,
			"byteOffset":13092,
			"target":34962
		},
		{
			"buffer":0,
			"byteLength":32,
			"byteOffset":13140,
			"target":34962
		},
		{
			"buffer":0,
			"byteLength":96,
			"byteOffset":13172,
			"target":34962
		},
		{
			"buffer":0,
			"byteLength":96,
			"byteOffset":13268,
			"target":34962
		},
		{
			"buffer":0,
			"byteLength":64,
			"byteOffset":13364,
			"target":34962
		}
	],
	"samplers":[
		{
			"magFilter":9729,
			"minFilter":9987
		}
	],
	"buffers":[
		{
			"byteLength":13428,
			"uri":"LC_cont2_scps.bin"
		}
	]
}
