{
	"asset":{
		"generator":"Khronos glTF Blender I/O v3.6.27",
		"version":"2.0"
	},
	"scene":0,
	"scenes":[
		{
			"name":"Scene",
			"nodes":[
				0,
				1,
				2,
				3,
				4,
				5
			]
		}
	],
	"nodes":[
		{
			"mesh":0,
			"name":"Floor.002"
		},
		{
			"mesh":1,
			"name":"DoorPath.002"
		},
		{
			"mesh":2,
			"name":"DoorPath.003"
		},
		{
			"mesh":3,
			"name":"Ceiling.001",
			"translation":[
				0,
				-0.39095810055732727,
				0
			]
		},
		{
			"mesh":4,
			"name":"LCZWallNeoCB2.006",
			"rotation":[
				-0.7071068286895752,
				-0.7071068286895752,
				0,
				3.090862321641907e-08
			],
			"translation":[
				-2.4310965538024902,
				0.8935859799385071,
				7.081890106201172
			]
		},
		{
			"mesh":5,
			"name":"LCZWallNeoCB2.005",
			"rotation":[
				-0.5,
				-0.5,
				0.5,
				0.5
			],
			"translation":[
				6.925848960876465,
				0.8935859799385071,
				2.5829098224639893
			]
		}
	],
	"materials":[
		{
			"doubleSided":true,
			"name":"Material.007",
			"normalTexture":{
				"index":0
			},
			"pbrMetallicRoughness":{
				"baseColorTexture":{
					"index":1
				},
				"metallicFactor":0,
				"metallicRoughnessTexture":{
					"index":2
				}
			}
		},
		{
			"doubleSided":true,
			"name":"Background.006",
			"normalTexture":{
				"index":3
			},
			"pbrMetallicRoughness":{
				"baseColorFactor":[
					0.800000011920929,
					0.800000011920929,
					0.800000011920929,
					1
				],
				"metallicFactor":0,
				"metallicRoughnessTexture":{
					"index":4
				}
			}
		},
		{
			"doubleSided":true,
			"name":"Material.011",
			"normalTexture":{
				"index":5
			},
			"pbrMetallicRoughness":{
				"baseColorTexture":{
					"index":6
				},
				"metallicRoughnessTexture":{
					"index":7
				}
			}
		},
		{
			"doubleSided":true,
			"name":"Glow.009",
			"pbrMetallicRoughness":{
				"baseColorFactor":[
					0,
					0,
					0,
					1
				],
				"metallicFactor":0,
				"roughnessFactor":0.5
			}
		},
		{
			"doubleSided":true,
			"name":"Foreground.006",
			"normalTexture":{
				"index":8
			},
			"pbrMetallicRoughness":{
				"baseColorTexture":{
					"index":9
				},
				"metallicRoughnessTexture":{
					"index":10
				}
			}
		}
	],
	"meshes":[
		{
			"name":"Plane.009",
			"primitives":[
				{
					"attributes":{
						"POSITION":0,
						"NORMAL":1,
						"TEXCOORD_0":2
					},
					"indices":3,
					"material":0
				}
			]
		},
		{
			"name":"Plane.014",
			"primitives":[
				{
					"attributes":{
						"POSITION":4,
						"NORMAL":5,
						"TEXCOORD_0":6
					},
					"indices":7,
					"material":1
				}
			]
		},
		{
			"name":"Plane.011",
			"primitives":[
				{
					"attributes":{
						"POSITION":8,
						"NORMAL":9,
						"TEXCOORD_0":10
					},
					"indices":11,
					"material":1
				}
			]
		},
		{
			"name":"Plane.012",
			"primitives":[
				{
					"attributes":{
						"POSITION":12,
						"NORMAL":13,
						"TEXCOORD_0":14
					},
					"indices":15,
					"material":2
				}
			]
		},
		{
			"name":"Plane.004",
			"primitives":[
				{
					"attributes":{
						"POSITION":16,
						"NORMAL":17,
						"TEXCOORD_0":18
					},
					"indices":19,
					"material":3
				},
				{
					"attributes":{
						"POSITION":20,
						"NORMAL":21,
						"TEXCOORD_0":22
					},
					"indices":23,
					"material":4
				},
				{
					"attributes":{
						"POSITION":24,
						"NORMAL":25,
						"TEXCOORD_0":26
					},
					"indices":27,
					"material":1
				},
				{
					"attributes":{
						"POSITION":28,
						"NORMAL":29,
						"TEXCOORD_0":30
					},
					"indices":19,
					"material":3
				},
				{
					"attributes":{
						"POSITION":31,
						"NORMAL":32,
						"TEXCOORD_0":33
					},
					"indices":23,
					"material":4
				},
				{
					"attributes":{
						"POSITION":34,
						"NORMAL":35,
						"TEXCOORD_0":36
					},
					"indices":37,
					"material":1
				}
			]
		},
		{
			"name":"Plane.006",
			"primitives":[
				{
					"attributes":{
						"POSITION":38,
						"NORMAL":39,
						"TEXCOORD_0":40
					},
					"indices":19,
					"material":3
				},
				{
					"attributes":{
						"POSITION":41,
						"NORMAL":42,
						"TEXCOORD_0":43
					},
					"indices":23,
					"material":4
				},
				{
					"attributes":{
						"POSITION":44,
						"NORMAL":45,
						"TEXCOORD_0":46
					},
					"indices":27,
					"material":1
				},
				{
					"attributes":{
						"POSITION":47,
						"NORMAL":48,
						"TEXCOORD_0":49
					},
					"indices":19,
					"material":3
				},
				{
					"attributes":{
						"POSITION":50,
						"NORMAL":51,
						"TEXCOORD_0":52
					},
					"indices":23,
					"material":4
				},
				{
					"attributes":{
						"POSITION":53,
						"NORMAL":54,
						"TEXCOORD_0":55
					},
					"indices":37,
					"material":1
				}
			]
		}
	],
	"textures":[
		{
			"sampler":0,
			"source":0
		},
		{
			"sampler":0,
			"source":1
		},
		{
			"sampler":0,
			"source":2
		},
		{
			"sampler":0,
			"source":3
		},
		{
			"sampler":0,
			"source":4
		},
		{
			"sampler":0,
			"source":5
		},
		{
			"sampler":0,
			"source":6
		},
		{
			"sampler":0,
			"source":7
		},
		{
			"sampler":0,
			"source":8
		},
		{
			"sampler":0,
			"source":9
		},
		{
			"sampler":0,
			"source":10
		}
	],
	"images":[
		{
			"mimeType":"image/png",
			"name":"Tiles107_2K_NormalGL",
			"uri":"Tiles107_2K_NormalGL.png"
		},
		{
			"mimeType":"image/png",
			"name":"Tiles107_2K_Color",
			"uri":"Tiles107_2K_Color.png"
		},
		{
			"mimeType":"image/png",
			"name":"Tiles107_2K_Roughness",
			"uri":"Tiles107_2K_Roughness.png"
		},
		{
			"mimeType":"image/png",
			"name":"beige_wall_001_nor_gl_2k",
			"uri":"beige_wall_001_nor_gl_2k.png"
		},
		{
			"mimeType":"image/png",
			"name":"beige_wall_001_rough_2k",
			"uri":"beige_wall_001_rough_2k.png"
		},
		{
			"mimeType":"image/png",
			"name":"OfficeCeiling001_2K_NormalGL",
			"uri":"OfficeCeiling001_2K_NormalGL.png"
		},
		{
			"mimeType":"image/png",
			"name":"OfficeCeiling001_2K_Color",
			"uri":"OfficeCeiling001_2K_Color.png"
		},
		{
			"mimeType":"image/png",
			"name":"OfficeCeiling001_2K_Metalness.png-OfficeCeiling001_2K_Roughness.png",
			"uri":"OfficeCeiling001_2K_Metalness_png-OfficeCeiling001_2K_Roughness_png.png"
		},
		{
			"mimeType":"image/png",
			"name":"SheetMetal001_2K-PNG_NormalGL",
			"uri":"SheetMetal001_2K-PNG_NormalGL.png"
		},
		{
			"mimeType":"image/png",
			"name":"SheetMetal001_2K-PNG_Color",
			"uri":"SheetMetal001_2K-PNG_Color.png"
		},
		{
			"mimeType":"image/png",
			"name":"SheetMetal001_2K-PNG_Metalness-SheetMetal001_2K-PNG_Roughness",
			"uri":"SheetMetal001_2K-PNG_Metalness-SheetMetal001_2K-PNG_Roughness.png"
		}
	],
	"accessors":[
		{
			"bufferView":0,
			"componentType":5126,
			"count":4,
			"max":[
				10.238296508789062,
				3.755558282136917e-07,
				10.238296508789062
			],
			"min":[
				-10.238295555114746,
				3.755558282136917e-07,
				-10.238296508789062
			],
			"type":"VEC3"
		},
		{
			"bufferView":1,
			"componentType":5126,
			"count":4,
			"type":"VEC3"
		},
		{
			"bufferView":2,
			"componentType":5126,
			"count":4,
			"type":"VEC2"
		},
		{
			"bufferView":3,
			"componentType":5123,
			"count":6,
			"type":"SCALAR"
		},
		{
			"bufferView":4,
			"componentType":5126,
			"count":57,
			"max":[
				10.238296508789062,
				6.996889114379883,
				7.999997138977051
			],
			"min":[
				9.9354829788208,
				-0.0031108856201171875,
				-8.00000286102295
			],
			"type":"VEC3"
		},
		{
			"bufferView":5,
			"componentType":5126,
			"count":57,
			"type":"VEC3"
		},
		{
			"bufferView":6,
			"componentType":5126,
			"count":57,
			"type":"VEC2"
		},
		{
			"bufferView":7,
			"componentType":5123,
			"count":129,
			"type":"SCALAR"
		},
		{
			"bufferView":8,
			"componentType":5126,
			"count":57,
			"max":[
				8.00000286102295,
				6.996889114379883,
				10.238296508789062
			],
			"min":[
				-7.999997615814209,
				-0.0031108856201171875,
				9.9354829788208
			],
			"type":"VEC3"
		},
		{
			"bufferView":9,
			"componentType":5126,
			"count":57,
			"type":"VEC3"
		},
		{
			"bufferView":10,
			"componentType":5126,
			"count":57,
			"type":"VEC2"
		},
		{
			"bufferView":11,
			"componentType":5123,
			"count":129,
			"type":"SCALAR"
		},
		{
			"bufferView":12,
			"componentType":5126,
			"count":4,
			"max":[
				10,
				6.99613094329834,
				10
			],
			"min":[
				-10,
				6.99613094329834,
				-10
			],
			"type":"VEC3"
		},
		{
			"bufferView":13,
			"componentType":5126,
			"count":4,
			"type":"VEC3"
		},
		{
			"bufferView":14,
			"componentType":5126,
			"count":4,
			"type":"VEC2"
		},
		{
			"bufferView":15,
			"componentType":5123,
			"count":6,
			"type":"SCALAR"
		},
		{
			"bufferView":16,
			"componentType":5126,
			"count":8,
			"max":[
				5.716610431671143,
				0,
				0.7234588265419006
			],
			"min":[
				-1,
				-0.17967292666435242,
				-0.694025456905365
			],
			"type":"VEC3"
		},
		{
			"bufferView":17,
			"componentType":5126,
			"count":8,
			"type":"VEC3"
		},
		{
			"bufferView":18,
			"componentType":5126,
			"count":8,
			"type":"VEC2"
		},
		{
			"bufferView":19,
			"componentType":5123,
			"count":12,
			"type":"SCALAR"
		},
		{
			"bufferView":20,
			"componentType":5126,
			"count":4,
			"max":[
				5.716610431671143,
				-0.1796724796295166,
				0.6480667591094971
			],
			"min":[
				-1,
				-0.17967292666435242,
				-0.6319376826286316
			],
			"type":"VEC3"
		},
		{
			"bufferView":21,
			"componentType":5126,
			"count":4,
			"type":"VEC3"
		},
		{
			"bufferView":22,
			"componentType":5126,
			"count":4,
			"type":"VEC2"
		},
		{
			"bufferView":23,
			"componentType":5123,
			"count":6,
			"type":"SCALAR"
		},
		{
			"bufferView":24,
			"componentType":5126,
			"count":12,
			"max":[
				5.716610908508301,
				4.5203752517700195,
				9.725594520568848
			],
			"min":[
				-1,
				-2.0616958806840557e-07,
				-3.129815101623535
			],
			"type":"VEC3"
		},
		{
			"bufferView":25,
			"componentType":5126,
			"count":12,
			"type":"VEC3"
		},
		{
			"bufferView":26,
			"componentType":5126,
			"count":12,
			"type":"VEC2"
		},
		{
			"bufferView":27,
			"componentType":5123,
			"count":18,
			"type":"SCALAR"
		},
		{
			"bufferView":28,
			"componentType":5126,
			"count":8,
			"max":[
				5.716610908508301,
				10.021212577819824,
				9.905267715454102
			],
			"min":[
				-0.9999995827674866,
				8.603727340698242,
				9.725594520568848
			],
			"type":"VEC3"
		},
		{
			"bufferView":29,
			"componentType":5126,
			"count":8,
			"type":"VEC3"
		},
		{
			"bufferView":30,
			"componentType":5126,
			"count":8,
			"type":"VEC2"
		},
		{
			"bufferView":31,
			"componentType":5126,
			"count":4,
			"max":[
				5.716610908508301,
				9.945819854736328,
				9.905267715454102
			],
			"min":[
				-0.9999995827674866,
				8.665815353393555,
				9.905266761779785
			],
			"type":"VEC3"
		},
		{
			"bufferView":32,
			"componentType":5126,
			"count":4,
			"type":"VEC3"
		},
		{
			"bufferView":33,
			"componentType":5126,
			"count":4,
			"type":"VEC2"
		},
		{
			"bufferView":34,
			"componentType":5126,
			"count":8,
			"max":[
				5.716610908508301,
				12.53976058959961,
				9.725594520568848
			],
			"min":[
				-0.9999997615814209,
				4.5203752517700195,
				9.725594520568848
			],
			"type":"VEC3"
		},
		{
			"bufferView":35,
			"componentType":5126,
			"count":8,
			"type":"VEC3"
		},
		{
			"bufferView":36,
			"componentType":5126,
			"count":8,
			"type":"VEC2"
		},
		{
			"bufferView":37,
			"componentType":5123,
			"count":12,
			"type":"SCALAR"
		},
		{
			"bufferView":38,
			"componentType":5126,
			"count":8,
			"max":[
				5.716610431671143,
				0,
				0.7234588265419006
			],
			"min":[
				-1,
				-0.17967292666435242,
				-0.694025456905365
			],
			"type":"VEC3"
		},
		{
			"bufferView":39,
			"componentType":5126,
			"count":8,
			"type":"VEC3"
		},
		{
			"bufferView":40,
			"componentType":5126,
			"count":8,
			"type":"VEC2"
		},
		{
			"bufferView":41,
			"componentType":5126,
			"count":4,
			"max":[
				5.716610431671143,
				-0.1796724796295166,
				0.6480667591094971
			],
			"min":[
				-1,
				-0.17967292666435242,
				-0.6319376826286316
			],
			"type":"VEC3"
		},
		{
			"bufferView":42,
			"componentType":5126,
			"count":4,
			"type":"VEC3"
		},
		{
			"bufferView":43,
			"componentType":5126,
			"count":4,
			"type":"VEC2"
		},
		{
			"bufferView":44,
			"componentType":5126,
			"count":12,
			"max":[
				5.716610431671143,
				9.309717796668338e-08,
				4.311124324798584
			],
			"min":[
				-1.0000001192092896,
				-1.318605661392212,
				-3.129815101623535
			],
			"type":"VEC3"
		},
		{
			"bufferView":45,
			"componentType":5126,
			"count":12,
			"type":"VEC3"
		},
		{
			"bufferView":46,
			"componentType":5126,
			"count":12,
			"type":"VEC2"
		},
		{
			"bufferView":47,
			"componentType":5126,
			"count":8,
			"max":[
				5.716610431671143,
				-3.754395008087158,
				4.311123847961426
			],
			"min":[
				-1.000000238418579,
				-5.171879768371582,
				4.131450653076172
			],
			"type":"VEC3"
		},
		{
			"bufferView":48,
			"componentType":5126,
			"count":8,
			"type":"VEC3"
		},
		{
			"bufferView":49,
			"componentType":5126,
			"count":8,
			"type":"VEC2"
		},
		{
			"bufferView":50,
			"componentType":5126,
			"count":4,
			"max":[
				5.716610431671143,
				-3.8164827823638916,
				4.131451606750488
			],
			"min":[
				-1.000000238418579,
				-5.096487522125244,
				4.131450653076172
			],
			"type":"VEC3"
		},
		{
			"bufferView":51,
			"componentType":5126,
			"count":4,
			"type":"VEC3"
		},
		{
			"bufferView":52,
			"componentType":5126,
			"count":4,
			"type":"VEC2"
		},
		{
			"bufferView":53,
			"componentType":5126,
			"count":8,
			"max":[
				5.716610431671143,
				-1.3186054229736328,
				4.311124324798584
			],
			"min":[
				-1.0000003576278687,
				-7.491792678833008,
				4.311122894287109
			],
			"type":"VEC3"
		},
		{
			"bufferView":54,
			"componentType":5126,
			"count":8,
			"type":"VEC3"
		},
		{
			"bufferView":55,
			"componentType":5126,
			"count":8,
			"type":"VEC2"
		}
	],
	"bufferViews":[
		{
			"buffer":0,
			"byteLength":48,
			"byteOffset":0,
			"target":34962
		},
		{
			"buffer":0,
			"byteLength":48,
			"byteOffset":48,
			"target":34962
		},
		{
			"buffer":0,
			"byteLength":32,
			"byteOffset":96,
			"target":34962
		},
		{
			"buffer":0,
			"byteLength":12,
			"byteOffset":128,
			"target":34963
		},
		{
			"buffer":0,
			"byteLength":684,
			"byteOffset":140,
			"target":34962
		},
		{
			"buffer":0,
			"byteLength":684,
			"byteOffset":824,
			"target":34962
		},
		{
			"buffer":0,
			"byteLength":456,
			"byteOffset":1508,
			"target":34962
		},
		{
			"buffer":0,
			"byteLength":258,
			"byteOffset":1964,
			"target":34963
		},
		{
			"buffer":0,
			"byteLength":684,
			"byteOffset":2224,
			"target":34962
		},
		{
			"buffer":0,
			"byteLength":684,
			"byteOffset":2908,
			"target":34962
		},
		{
			"buffer":0,
			"byteLength":456,
			"byteOffset":3592,
			"target":34962
		},
		{
			"buffer":0,
			"byteLength":258,
			"byteOffset":4048,
			"target":34963
		},
		{
			"buffer":0,
			"byteLength":48,
			"byteOffset":4308,
			"target":34962
		},
		{
			"buffer":0,
			"byteLength":48,
			"byteOffset":4356,
			"target":34962
		},
		{
			"buffer":0,
			"byteLength":32,
			"byteOffset":4404,
			"target":34962
		},
		{
			"buffer":0,
			"byteLength":12,
			"byteOffset":4436,
			"target":34963
		},
		{
			"buffer":0,
			"byteLength":96,
			"byteOffset":4448,
			"target":34962
		},
		{
			"buffer":0,
			"byteLength":96,
			"byteOffset":4544,
			"target":34962
		},
		{
			"buffer":0,
			"byteLength":64,
			"byteOffset":4640,
			"target":34962
		},
		{
			"buffer":0,
			"byteLength":24,
			"byteOffset":4704,
			"target":34963
		},
		{
			"buffer":0,
			"byteLength":48,
			"byteOffset":4728,
			"target":34962
		},
		{
			"buffer":0,
			"byteLength":48,
			"byteOffset":4776,
			"target":34962
		},
		{
			"buffer":0,
			"byteLength":32,
			"byteOffset":4824,
			"target":34962
		},
		{
			"buffer":0,
			"byteLength":12,
			"byteOffset":4856,
			"target":34963
		},
		{
			"buffer":0,
			"byteLength":144,
			"byteOffset":4868,
			"target":34962
		},
		{
			"buffer":0,
			"byteLength":144,
			"byteOffset":5012,
			"target":34962
		},
		{
			"buffer":0,
			"byteLength":96,
			"byteOffset":5156,
			"target":34962
		},
		{
			"buffer":0,
			"byteLength":36,
			"byteOffset":5252,
			"target":34963
		},
		{
			"buffer":0,
			"byteLength":96,
			"byteOffset":5288,
			"target":34962
		},
		{
			"buffer":0,
			"byteLength":96,
			"byteOffset":5384,
			"target":34962
		},
		{
			"buffer":0,
			"byteLength":64,
			"byteOffset":5480,
			"target":34962
		},
		{
			"buffer":0,
			"byteLength":48,
			"byteOffset":5544,
			"target":34962
		},
		{
			"buffer":0,
			"byteLength":48,
			"byteOffset":5592,
			"target":34962
		},
		{
			"buffer":0,
			"byteLength":32,
			"byteOffset":5640,
			"target":34962
		},
		{
			"buffer":0,
			"byteLength":96,
			"byteOffset":5672,
			"target":34962
		},
		{
			"buffer":0,
			"byteLength":96,
			"byteOffset":5768,
			"target":34962
		},
		{
			"buffer":0,
			"byteLength":64,
			"byteOffset":5864,
			"target":34962
		},
		{
			"buffer":0,
			"byteLength":24,
			"byteOffset":5928,
			"target":34963
		},
		{
			"buffer":0,
			"byteLength":96,
			"byteOffset":5952,
			"target":34962
		},
		{
			"buffer":0,
			"byteLength":96,
			"byteOffset":6048,
			"target":34962
		},
		{
			"buffer":0,
			"byteLength":64,
			"byteOffset":6144,
			"target":34962
		},
		{
			"buffer":0,
			"byteLength":48,
			"byteOffset":6208,
			"target":34962
		},
		{
			"buffer":0,
			"byteLength":48,
			"byteOffset":6256,
			"target":34962
		},
		{
			"buffer":0,
			"byteLength":32,
			"byteOffset":6304,
			"target":34962
		},
		{
			"buffer":0,
			"byteLength":144,
			"byteOffset":6336,
			"target":34962
		},
		{
			"buffer":0,
			"byteLength":144,
			"byteOffset":6480,
			"target":34962
		},
		{
			"buffer":0,
			"byteLength":96,
			"byteOffset":6624,
			"target":34962
		},
		{
			"buffer":0,
			"byteLength":96,
			"byteOffset":6720,
			"target":34962
		},
		{
			"buffer":0,
			"byteLength":96,
			"byteOffset":6816,
			"target":34962
		},
		{
			"buffer":0,
			"byteLength":64,
			"byteOffset":6912,
			"target":34962
		},
		{
			"buffer":0,
			"byteLength":48,
			"byteOffset":6976,
			"target":34962
		},
		{
			"buffer":0,
			"byteLength":48,
			"byteOffset":7024,
			"target":34962
		},
		{
			"buffer":0,
			"byteLength":32,
			"byteOffset":7072,
			"target":34962
		},
		{
			"buffer":0,
			"byteLength":96,
			"byteOffset":7104,
			"target":34962
		},
		{
			"buffer":0,
			"byteLength":96,
			"byteOffset":7200,
			"target":34962
		},
		{
			"buffer":0,
			"byteLength":64,
			"byteOffset":7296,
			"target":34962
		}
	],
	"samplers":[
		{
			"magFilter":9729,
			"minFilter":9987
		}
	],
	"buffers":[
		{
			"byteLength":7360,
			"uri":"LC_room2C.bin"
		}
	]
}
